<?xml version="1.0" standalone="no"?>
<!DOCTYPE svg PUBLIC "-//W3C//DTD SVG 20010904//EN"
 "http://www.w3.org/TR/2001/REC-SVG-20010904/DTD/svg10.dtd">
<svg version="1.0" xmlns="http://www.w3.org/2000/svg"
 width="300.000000pt" height="300.000000pt" viewBox="0 0 300.000000 300.000000"
 preserveAspectRatio="xMidYMid meet">
<metadata>
Created by potrace 1.10, written by Peter Selinger 2001-2011
</metadata>
<g transform="translate(0.000000,300.000000) scale(0.100000,-0.100000)"
fill="#ffffff" stroke="none">
<path d="M623 1687 l-103 -71 35 -61 34 -62 -154 -122 c-85 -68 -155 -125
-155 -127 0 -2 19 8 43 23 164 105 320 202 328 205 5 2 -1 35 -15 74 l-24 72
60 66 c33 37 59 68 57 70 -2 2 -50 -29 -106 -67z"/>
<path d="M2317 1684 l60 -66 -24 -71 c-12 -39 -22 -71 -20 -72 12 -7 329 -205
350 -219 64 -43 17 0 -128 114 l-155 123 35 62 35 62 -100 66 c-55 37 -103 67
-106 67 -3 0 21 -30 53 -66z"/>
<path d="M803 1703 c-29 -4 -38 -14 -83 -90 -27 -46 -50 -87 -50 -89 0 -2 14
-4 32 -4 21 0 42 9 61 28 l30 27 -5 -27 c-5 -25 -2 -28 23 -28 l29 0 0 95 c0
52 -1 94 -2 93 -2 0 -18 -3 -35 -5z m-17 -100 c-11 -11 -17 4 -9 23 7 18 8 18
11 1 2 -10 1 -21 -2 -24z"/>
<path d="M870 1613 c0 -93 0 -93 25 -93 24 0 25 3 25 58 l1 57 18 -34 19 -35
18 35 c14 27 19 30 22 15 2 -10 2 -36 0 -57 -3 -36 -2 -39 22 -39 l25 0 -3 93
-3 93 -32 -4 c-18 -3 -36 -11 -40 -19 -8 -12 -10 -12 -20 0 -7 8 -27 17 -44
19 l-33 5 0 -94z"/>
<path d="M1070 1633 c0 -86 18 -113 74 -113 50 0 66 28 66 115 0 68 -1 70 -25
71 -24 2 -25 0 -25 -68 0 -61 -2 -69 -17 -66 -15 3 -18 15 -18 67 -1 63 -1 64
-28 65 l-27 2 0 -73z"/>
<path d="M1298 1703 l-68 -4 0 -89 0 -90 70 0 c68 0 70 1 70 25 0 23 -4 25
-45 25 -25 0 -45 5 -45 10 0 6 20 10 45 10 42 0 45 2 45 26 0 24 -3 25 -42 23
-26 -2 -43 1 -46 9 -2 8 10 12 42 12 42 0 46 2 46 25 0 14 -1 24 -2 23 -2 -1
-33 -3 -70 -5z"/>
<path d="M1400 1705 c-1 0 -2 -42 -3 -93 l-2 -92 70 0 c68 0 70 1 70 25 0 23
-4 25 -42 25 l-43 0 0 68 c0 65 -1 67 -25 67 -14 0 -25 0 -25 0z"/>
<path d="M1650 1613 l0 -93 28 0 c26 0 28 2 24 35 -4 33 -3 35 27 35 22 0 35
7 48 26 15 24 15 29 2 53 -12 22 -23 27 -72 31 l-57 5 0 -92z m88 35 c-3 -7
-11 -13 -18 -13 -7 0 -15 6 -17 13 -3 7 4 12 17 12 13 0 20 -5 18 -12z"/>
<path d="M1806 1700 c-2 -3 -4 -44 -5 -92 l-1 -88 70 0 c68 0 70 1 70 25 0 23
-4 25 -45 25 -25 0 -45 5 -45 10 0 6 20 10 45 10 42 0 45 2 45 26 0 24 -3 25
-42 23 -26 -2 -43 1 -46 9 -2 8 10 12 42 12 41 0 46 2 46 23 0 21 -4 22 -66
22 -36 0 -67 -2 -68 -5z"/>
<path d="M1970 1705 c-1 0 -2 -42 -3 -93 l-2 -92 29 0 c25 0 27 3 22 25 -4 14
-2 25 3 25 5 0 12 -11 15 -25 5 -20 13 -25 36 -25 35 0 35 1 14 41 -14 28 -14
32 0 48 19 21 21 65 4 79 -10 7 -76 17 -118 17z m90 -55 c0 -5 -9 -10 -20 -10
-11 0 -20 5 -20 10 0 6 9 10 20 10 11 0 20 -4 20 -10z"/>
<path d="M2130 1613 l0 -93 70 0 c68 0 70 1 70 25 0 23 -4 25 -45 25 -25 0
-45 5 -45 10 0 6 20 10 45 10 42 0 45 2 45 26 0 25 -2 26 -45 22 -31 -2 -45 1
-45 9 0 9 16 13 46 13 41 0 45 2 42 21 -3 19 -10 21 -71 23 l-67 1 0 -92z"/>
</g>
</svg>
