<?xml version="1.0" standalone="no"?>
<!DOCTYPE svg PUBLIC "-//W3C//DTD SVG 20010904//EN"
 "http://www.w3.org/TR/2001/REC-SVG-20010904/DTD/svg10.dtd">
<svg version="1.0" xmlns="http://www.w3.org/2000/svg"
 width="1000.000000pt" height="1000.000000pt" viewBox="0 0 1000.000000 1000.000000"
 preserveAspectRatio="xMidYMid meet">
<metadata>
Created by potrace 1.16, written by Peter Selinger 2001-2019
</metadata>
<g transform="translate(0.000000,1000.000000) scale(0.100000,-0.100000)"
fill="#000000" stroke="none">
<path d="M2210 5706 c-113 -74 -263 -172 -334 -218 -71 -46 -133 -86 -138 -89
-5 -3 42 -99 106 -212 l115 -207 -127 -103 c-70 -57 -293 -238 -497 -402 -364
-293 -400 -323 -380 -313 79 41 1235 763 1235 771 0 7 -7 32 -14 57 -8 25 -39
126 -70 224 l-55 180 172 205 c194 232 201 241 196 241 -3 0 -97 -60 -209
-134z"/>
<path d="M7627 5735 c50 -61 132 -159 183 -220 50 -60 94 -115 97 -121 2 -7
-28 -114 -67 -240 -39 -125 -67 -231 -63 -235 6 -5 1091 -676 1206 -746 43
-26 -66 65 -483 403 -269 218 -490 400 -490 403 0 4 50 96 110 206 61 109 110
201 109 204 0 3 -86 62 -192 131 -106 68 -244 158 -307 200 -211 139 -206 138
-103 15z"/>
<path d="M2561 5663 c-5 -10 -84 -148 -174 -308 l-165 -290 99 -3 99 -3 98 80
97 80 3 -79 3 -80 94 0 95 0 0 310 0 310 -120 0 c-103 0 -121 -2 -129 -17z"/>
<path d="M2900 5370 l0 -310 85 0 85 0 2 183 3 182 30 -50 c16 -27 41 -69 56
-93 l27 -43 64 93 63 92 3 -182 2 -182 80 0 80 0 0 310 0 310 -113 0 -113 0
-29 -50 c-16 -27 -32 -50 -37 -50 -4 0 -19 22 -35 50 l-28 50 -112 0 -113 0 0
-310z"/>
<path d="M3570 5447 c0 -226 1 -235 23 -278 33 -62 97 -100 179 -106 112 -9
196 29 236 107 21 42 22 55 22 277 l0 233 -80 0 -80 0 0 -200 c0 -187 -1 -201
-20 -220 -11 -11 -29 -20 -40 -20 -11 0 -29 9 -40 20 -19 19 -20 33 -20 220
l0 200 -90 0 -90 0 0 -233z"/>
<path d="M4110 5370 l0 -310 230 0 230 0 0 85 0 85 -140 0 -140 0 0 30 0 30
140 0 140 0 0 85 0 85 -140 0 -140 0 0 30 0 30 140 0 140 0 0 80 0 80 -230 0
-230 0 0 -310z"/>
<path d="M4650 5370 l0 -310 230 0 230 0 0 85 0 85 -135 0 -135 0 0 225 0 225
-95 0 -95 0 0 -310z"/>
<path d="M5500 5370 l0 -310 90 0 90 0 0 114 0 114 84 3 c93 4 122 18 163 78
45 66 40 179 -12 247 -43 56 -75 64 -254 64 l-161 0 0 -310z"/>
<path d="M6010 5370 l0 -310 230 0 230 0 0 85 0 85 -140 0 -140 0 0 30 0 30
140 0 140 0 0 85 0 85 -140 0 -140 0 0 30 0 30 140 0 140 0 0 80 0 80 -230 0
-230 0 0 -310z"/>
<path d="M6550 5370 l0 -310 90 0 89 0 3 87 3 87 34 -87 33 -87 104 0 104 0
-22 53 c-11 28 -34 87 -51 130 l-30 79 32 25 c77 61 92 174 34 256 -49 69 -75
77 -260 77 l-163 0 0 -310z"/>
<path d="M7090 5370 l0 -310 230 0 230 0 0 85 0 85 -140 0 -140 0 0 30 0 30
140 0 140 0 0 85 0 85 -140 0 -140 0 0 30 0 30 140 0 140 0 0 80 0 80 -230 0
-230 0 0 -310z"/>
</g>
</svg>
