<svg version="1.0" xmlns="http://www.w3.org/2000/svg" width="247.94594585895538" height="52" preserveAspectRatio="xMidYMid meet" style=""><rect id="backgroundrect" width="100%" height="100%" x="0" y="0" fill="none" stroke="none" style="" class=""/>
<metadata>
Created by potrace 1.10, written by Peter Selinger 2001-2011
</metadata>

<g class="currentLayer" style=""><title>Layer 1</title><g transform="translate(0, 300) scale(0.1, -0.1)" fill="#ffffff" stroke="none" id="svg_1" class="selected" fill-opacity="1">
<path d="M373,2923.486572265625 l-103,-71 l35,-61 l34,-62 l-154,-122 c-85,-68 -155,-125 -155,-127 c0,-2 19,8 43,23 c164,105 320,202 328,205 c5,2 -1,35 -15,74 l-24,72 l60,66 c33,37 59,68 57,70 c-2,2 -50,-29 -106,-67 z" id="svg_2" fill="#ffffff" fill-opacity="1"/>
<path d="M2067.0001831054688,2920.486572265625 l60,-66 l-24,-71 c-12,-39 -22,-71 -20,-72 c12,-7 329,-205 350,-219 c64,-43 17,0 -128,114 l-155,123 l35,62 l35,62 l-100,66 c-55,37 -103,67 -106,67 c-3,0 21,-30 53,-66 z" id="svg_3" fill="#ffffff" fill-opacity="1"/>
<path d="M553,2939.486572265625 c-29,-4 -38,-14 -83,-90 c-27,-46 -50,-87 -50,-89 c0,-2 14,-4 32,-4 c21,0 42,9 61,28 l30,27 l-5,-27 c-5,-25 -2,-28 23,-28 l29,0 l0,95 c0,52 -1,94 -2,93 c-2,0 -18,-3 -35,-5 zm-17,-100 c-11,-11 -17,4 -9,23 c7,18 8,18 11,1 c2,-10 1,-21 -2,-24 z" id="svg_4" fill="#ffffff" fill-opacity="1"/>
<path d="M620,2849.486572265625 c0,-93 0,-93 25,-93 c24,0 25,3 25,58 l1,57 l18,-34 l19,-35 l18,35 c14,27 19,30 22,15 c2,-10 2,-36 0,-57 c-3,-36 -2,-39 22,-39 l25,0 l-3,93 l-3,93 l-32,-4 c-18,-3 -36,-11 -40,-19 c-8,-12 -10,-12 -20,0 c-7,8 -27,17 -44,19 l-33,5 l0,-94 z" id="svg_5" fill="#ffffff" fill-opacity="1"/>
<path d="M820,2869.486572265625 c0,-86 18,-113 74,-113 c50,0 66,28 66,115 c0,68 -1,70 -25,71 c-24,2 -25,0 -25,-68 c0,-61 -2,-69 -17,-66 c-15,3 -18,15 -18,67 c-1,63 -1,64 -28,65 l-27,2 l0,-73 z" id="svg_6" fill="#ffffff" fill-opacity="1"/>
<path d="M1047.9999389648438,2939.486572265625 l-68,-4 l0,-89 l0,-90 l70,0 c68,0 70,1 70,25 c0,23 -4,25 -45,25 c-25,0 -45,5 -45,10 c0,6 20,10 45,10 c42,0 45,2 45,26 c0,24 -3,25 -42,23 c-26,-2 -43,1 -46,9 c-2,8 10,12 42,12 c42,0 46,2 46,25 c0,14 -1,24 -2,23 c-2,-1 -33,-3 -70,-5 z" id="svg_7" fill="#ffffff" fill-opacity="1"/>
<path d="M1149.9999389648438,2941.486572265625 c-1,0 -2,-42 -3,-93 l-2,-92 l70,0 c68,0 70,1 70,25 c0,23 -4,25 -42,25 l-43,0 l0,68 c0,65 -1,67 -25,67 c-14,0 -25,0 -25,0 z" id="svg_8" fill="#ffffff" fill-opacity="1"/>
<path d="M1399.9999389648438,2849.486572265625 l0,-93 l28,0 c26,0 28,2 24,35 c-4,33 -3,35 27,35 c22,0 35,7 48,26 c15,24 15,29 2,53 c-12,22 -23,27 -72,31 l-57,5 l0,-92 zm88,35 c-3,-7 -11,-13 -18,-13 c-7,0 -15,6 -17,13 c-3,7 4,12 17,12 c13,0 20,-5 18,-12 z" id="svg_9" fill="#ffffff" fill-opacity="1"/>
<path d="M1555.9999389648438,2936.486572265625 c-2,-3 -4,-44 -5,-92 l-1,-88 l70,0 c68,0 70,1 70,25 c0,23 -4,25 -45,25 c-25,0 -45,5 -45,10 c0,6 20,10 45,10 c42,0 45,2 45,26 c0,24 -3,25 -42,23 c-26,-2 -43,1 -46,9 c-2,8 10,12 42,12 c41,0 46,2 46,23 c0,21 -4,22 -66,22 c-36,0 -67,-2 -68,-5 z" id="svg_10" fill="#ffffff" fill-opacity="1"/>
<path d="M1719.9999389648438,2941.486572265625 c-1,0 -2,-42 -3,-93 l-2,-92 l29,0 c25,0 27,3 22,25 c-4,14 -2,25 3,25 c5,0 12,-11 15,-25 c5,-20 13,-25 36,-25 c35,0 35,1 14,41 c-14,28 -14,32 0,48 c19,21 21,65 4,79 c-10,7 -76,17 -118,17 zm90,-55 c0,-5 -9,-10 -20,-10 c-11,0 -20,5 -20,10 c0,6 9,10 20,10 c11,0 20,-4 20,-10 z" id="svg_11" fill="#ffffff" fill-opacity="1"/>
<path d="M1880.0001831054688,2849.486572265625 l0,-93 l70,0 c68,0 70,1 70,25 c0,23 -4,25 -45,25 c-25,0 -45,5 -45,10 c0,6 20,10 45,10 c42,0 45,2 45,26 c0,25 -2,26 -45,22 c-31,-2 -45,1 -45,9 c0,9 16,13 46,13 c41,0 45,2 42,21 c-3,19 -10,21 -71,23 l-67,1 l0,-92 z" id="svg_12" fill="#ffffff" fill-opacity="1"/>
</g></g></svg>